<svg width="1920" height="1080" viewBox="0 0 1920 1080" fill="none" xmlns="http://www.w3.org/2000/svg">
  <defs>
    <linearGradient id="bgGrad" x1="0%" y1="0%" x2="100%" y2="100%">
      <stop offset="0%" style="stop-color:#fef3c7"/>
      <stop offset="50%" style="stop-color:#fecaca"/>
      <stop offset="100%" style="stop-color:#e9d5ff"/>
    </linearGradient>
    <linearGradient id="circleGrad" x1="0%" y1="0%" x2="100%" y2="100%">
      <stop offset="0%" style="stop-color:#f97316"/>
      <stop offset="100%" style="stop-color:#ef4444"/>
    </linearGradient>
  </defs>
  <rect width="1920" height="1080" fill="url(#bgGrad)"/>
  <circle cx="200" cy="200" r="150" fill="#fde68a" opacity="0.5"/>
  <circle cx="1700" cy="900" r="200" fill="#fca5a5" opacity="0.4"/>
  <g transform="translate(960, 500)">
    <rect x="-200" y="150" width="400" height="50" rx="10" fill="#78716c"/>
    <ellipse cx="0" cy="130" rx="160" ry="25" fill="#a8a29e"/>
    <ellipse cx="0" cy="50" rx="60" ry="80" fill="url(#circleGrad)" opacity="0.8"/>
    <circle cx="0" cy="-60" r="45" fill="url(#circleGrad)" opacity="0.8"/>
    <path d="M300 50 L270 100 L285 100 L285 180 L315 180 L315 100 L330 100 Z" fill="#ef4444"/>
    <circle cx="-280" cy="-100" r="25" fill="#22c55e"/>
    <ellipse cx="280" cy="-100" rx="35" ry="20" fill="#eab308"/>
    <text x="-150" y="-150" font-family="sans-serif" font-size="60" font-weight="bold" fill="#78716c" opacity="0.5">?</text>
    <text x="120" y="-130" font-family="sans-serif" font-size="40" font-weight="bold" fill="#78716c" opacity="0.4">?</text>
  </g>
  <rect x="0" y="900" width="1920" height="180" fill="#1c1917" opacity="0.7"/>
  <text x="960" y="980" text-anchor="middle" font-family="sans-serif" font-size="48" font-weight="bold" fill="#fafaf9">Exercise ≠ Weight Loss</text>
  <text x="960" y="1040" text-anchor="middle" font-family="sans-serif" font-size="28" fill="#a8a29e">The science of energy compensation</text>
</svg>
