<svg viewBox="0 0 800 450" fill="none" xmlns="http://www.w3.org/2000/svg">
    <!-- Background decorative elements -->
    <rect width="800" height="450" fill="#fafaf9"/>
    <circle cx="120" cy="80" r="180" fill="url(#grad1)" opacity="0.4"/>
    <circle cx="700" cy="380" r="150" fill="url(#grad2)" opacity="0.3"/>
    
    <!-- Central phone mockup -->
    <g transform="translate(280, 40)">
        <rect x="0" y="0" width="240" height="370" rx="28" fill="#1c1917" stroke="#292524" stroke-width="2"/>
        <rect x="8" y="8" width="224" height="354" rx="22" fill="#fafaf9"/>
        
        <!-- Phone screen content - Chat UI -->
        <rect x="16" y="16" width="208" height="40" rx="8" fill="#f5f5f4"/>
        <text x="120" y="42" text-anchor="middle" font-size="14" font-weight="700" fill="#44403c" font-family="system-ui, sans-serif">Щоденник</text>
        
        <!-- Chat messages -->
        <g transform="translate(16, 70)">
            <!-- User message -->
            <rect x="50" y="0" width="150" height="36" rx="12" fill="#f59e0b"/>
            <text x="125" y="23" text-anchor="middle" font-size="11" fill="white" font-weight="500" font-family="system-ui, sans-serif">тарілка борщу 300г</text>
            
            <!-- AI response -->
            <rect x="0" y="46" width="170" height="50" rx="12" fill="#f5f5f4" stroke="#e7e5e4" stroke-width="1"/>
            <text x="12" y="68" font-size="10" fill="#57534e" font-family="system-ui, sans-serif">✓ Додано: Борщ</text>
            <text x="12" y="84" font-size="10" fill="#78716c" font-family="system-ui, sans-serif">102 ккал · Обід</text>
            
            <!-- User message 2 -->
            <rect x="60" y="106" width="140" height="36" rx="12" fill="#f59e0b"/>
            <text x="130" y="129" text-anchor="middle" font-size="11" fill="white" font-weight="500" font-family="system-ui, sans-serif">56,8 кг</text>
            
            <!-- AI response 2 -->
            <rect x="0" y="152" width="180" height="50" rx="12" fill="#f5f5f4" stroke="#e7e5e4" stroke-width="1"/>
            <text x="12" y="174" font-size="10" fill="#57534e" font-family="system-ui, sans-serif">✓ Вага записана</text>
            <text x="12" y="190" font-size="10" fill="#78716c" font-family="system-ui, sans-serif">До мети: 21 день 🎯</text>
        </g>
        
        <!-- Input field -->
        <rect x="16" y="310" width="208" height="40" rx="12" fill="#f5f5f4" stroke="#e7e5e4" stroke-width="1"/>
        <text x="28" y="335" font-size="11" fill="#a8a29e" font-family="system-ui, sans-serif">Напишіть щось...</text>
        <circle cx="200" cy="330" r="14" fill="#f59e0b"/>
        <path d="M195 330 L205 330 M200 325 L200 335" stroke="white" stroke-width="2" stroke-linecap="round"/>
    </g>
    
    <!-- Left side - Recipe calculation -->
    <g transform="translate(40, 100)">
        <rect x="0" y="0" width="180" height="140" rx="16" fill="white" stroke="#e7e5e4" stroke-width="1" filter="url(#shadow)"/>
        <text x="16" y="28" font-size="12" font-weight="700" fill="#1c1917" font-family="system-ui, sans-serif">🍲 Розрахунок рецепту</text>
        
        <!-- Ingredients list -->
        <text x="16" y="52" font-size="10" fill="#78716c" font-family="system-ui, sans-serif">Картопля сира</text>
        <text x="145" y="52" font-size="10" fill="#57534e" text-anchor="end" font-family="system-ui, sans-serif">400г</text>
        
        <text x="16" y="70" font-size="10" fill="#78716c" font-family="system-ui, sans-serif">М'ясо яловичини</text>
        <text x="145" y="70" font-size="10" fill="#57534e" text-anchor="end" font-family="system-ui, sans-serif">300г</text>
        
        <text x="16" y="88" font-size="10" fill="#78716c" font-family="system-ui, sans-serif">Овочі</text>
        <text x="145" y="88" font-size="10" fill="#57534e" text-anchor="end" font-family="system-ui, sans-serif">200г</text>
        
        <line x1="16" y1="100" x2="164" y2="100" stroke="#e7e5e4" stroke-width="1"/>
        
        <text x="16" y="118" font-size="10" font-weight="600" fill="#1c1917" font-family="system-ui, sans-serif">Готова страва:</text>
        <text x="145" y="118" font-size="10" font-weight="600" fill="#f59e0b" text-anchor="end" font-family="system-ui, sans-serif">680г</text>
        
        <!-- Arrow showing calculation -->
        <path d="M165 60 L185 80 L165 100" stroke="#d6d3d1" stroke-width="2" fill="none" stroke-linecap="round" stroke-linejoin="round"/>
    </g>
    
    <!-- Right side - Progress chart -->
    <g transform="translate(560, 80)">
        <rect x="0" y="0" width="190" height="160" rx="16" fill="white" stroke="#e7e5e4" stroke-width="1" filter="url(#shadow)"/>
        <text x="16" y="28" font-size="12" font-weight="700" fill="#1c1917" font-family="system-ui, sans-serif">📊 Прогрес</text>
        
        <!-- Mini chart -->
        <g transform="translate(16, 45)">
            <polyline points="0,70 30,65 60,55 90,60 120,45 150,30" stroke="#f59e0b" stroke-width="2.5" fill="none" stroke-linecap="round" stroke-linejoin="round"/>
            <circle cx="150" cy="30" r="5" fill="#f59e0b"/>
            
            <!-- Chart grid -->
            <line x1="0" y1="70" x2="158" y2="70" stroke="#e7e5e4" stroke-width="1"/>
            <text x="0" y="85" font-size="8" fill="#a8a29e" font-family="system-ui, sans-serif">Тиж 1</text>
            <text x="130" y="85" font-size="8" fill="#a8a29e" font-family="system-ui, sans-serif">Тиж 6</text>
        </g>
        
        <!-- Goal date -->
        <rect x="16" y="120" width="158" height="28" rx="8" fill="#ecfdf5"/>
        <text x="95" y="139" text-anchor="middle" font-size="10" font-weight="600" fill="#059669" font-family="system-ui, sans-serif">🎯 Мета: 15 лютого</text>
    </g>
    
    <!-- Bottom - Product search -->
    <g transform="translate(560, 260)">
        <rect x="0" y="0" width="190" height="130" rx="16" fill="white" stroke="#e7e5e4" stroke-width="1" filter="url(#shadow)"/>
        <text x="16" y="28" font-size="12" font-weight="700" fill="#1c1917" font-family="system-ui, sans-serif">🔍 86 000 продуктів</text>
        
        <!-- Product items -->
        <g transform="translate(12, 40)">
            <rect x="0" y="0" width="166" height="26" rx="6" fill="#fafaf9"/>
            <text x="8" y="17" font-size="9" fill="#57534e" font-family="system-ui, sans-serif">Яготинське 2.6%</text>
            <text x="158" y="17" text-anchor="end" font-size="9" fill="#78716c" font-family="system-ui, sans-serif">52</text>
        </g>
        <g transform="translate(12, 72)">
            <rect x="0" y="0" width="166" height="26" rx="6" fill="#fafaf9"/>
            <text x="8" y="17" font-size="9" fill="#57534e" font-family="system-ui, sans-serif">Рошен Конафето</text>
            <text x="158" y="17" text-anchor="end" font-size="9" fill="#78716c" font-family="system-ui, sans-serif">523</text>
        </g>
    </g>
    
    <!-- Floating elements -->
    <g transform="translate(50, 280)">
        <circle cx="20" cy="20" r="24" fill="white" stroke="#e7e5e4" stroke-width="1" filter="url(#shadow)"/>
        <text x="20" y="26" text-anchor="middle" font-size="20">🥗</text>
    </g>
    
    <g transform="translate(180, 320)">
        <circle cx="20" cy="20" r="20" fill="white" stroke="#e7e5e4" stroke-width="1" filter="url(#shadow)"/>
        <text x="20" y="26" text-anchor="middle" font-size="16">🍎</text>
    </g>
    
    <g transform="translate(100, 360)">
        <circle cx="16" cy="16" r="18" fill="white" stroke="#e7e5e4" stroke-width="1" filter="url(#shadow)"/>
        <text x="16" y="22" text-anchor="middle" font-size="14">🥛</text>
    </g>
    
    <!-- Sparkle effects -->
    <g fill="#f59e0b" opacity="0.6">
        <circle cx="260" cy="60" r="3"/>
        <circle cx="540" cy="100" r="2"/>
        <circle cx="240" cy="380" r="2.5"/>
        <circle cx="580" cy="420" r="2"/>
    </g>
    
    <!-- Definitions -->
    <defs>
        <radialGradient id="grad1" cx="50%" cy="50%" r="50%">
            <stop offset="0%" stop-color="#f59e0b" stop-opacity="0.3"/>
            <stop offset="100%" stop-color="#f59e0b" stop-opacity="0"/>
        </radialGradient>
        <radialGradient id="grad2" cx="50%" cy="50%" r="50%">
            <stop offset="0%" stop-color="#0ea5e9" stop-opacity="0.25"/>
            <stop offset="100%" stop-color="#0ea5e9" stop-opacity="0"/>
        </radialGradient>
        <filter id="shadow" x="-20%" y="-20%" width="140%" height="140%">
            <feDropShadow dx="0" dy="4" stdDeviation="8" flood-color="#1c1917" flood-opacity="0.08"/>
        </filter>
    </defs>
</svg>
